<?xml version="1.0" standalone="no"?>
<!DOCTYPE svg PUBLIC "-//W3C//DTD SVG 1.1//EN" "http://www.w3.org/Graphics/SVG/1.1/DTD/svg11.dtd">
<svg xmlns="http://www.w3.org/2000/svg" xmlns:xlink="http://www.w3.org/1999/xlink" version="1.1" viewBox="-10 0 1044 1024">
    <path fill="orange"
          d="M186 93v-93h93v93h-93zM745 93v-93h93v93h-93zM279 186v-93h93v93h-93zM652 186v-93h93v93h-93zM279 279v-93h93v93h-93zM372 279v-93h93v93h-93zM465 279v-93h94v93h-94zM559 279v-93h93v93h-93zM652 279v-93h93v93h-93zM186 372v-93h93v93h-93zM279 372v-93h93v93h-93z
M372 372v-93h93v93h-93zM465 372v-93h94v93h-94zM559 372v-93h93v93h-93zM652 372v-93h93v93h-93zM745 372v-93h93v93h-93zM93 465v-93h93v93h-93zM186 465v-93h93v93h-93zM465 465v-93h94v93h-94zM559 465v-93h93v93h-93zM838 465v-93h93v93h-93zM93 559v-94h93v94h-93z
M186 559v-94h93v94h-93zM372 559v-94h93v94h-93zM465 559v-94h94v94h-94zM559 559v-94h93v94h-93zM745 559v-94h93v94h-93zM838 559v-94h93v94h-93zM0 652v-93h93v93h-93zM93 652v-93h93v93h-93zM186 652v-93h93v93h-93zM279 652v-93h93v93h-93zM372 652v-93h93v93h-93z
M465 652v-93h94v93h-94zM559 652v-93h93zM652 559h93h-93zM745 559h93h-93zM838 559h93h-93zM931 559h93h-93zM186 745v-93h93v93h-93zM372 745v-93h93v93h-93zM559 652zM186 838v-93h93v93h-93zM372 838v-93h93v93h-93zM372 931v-93h93v93h-93zM279 1024v-93h93v93h-93z
M372 1024v-93h93v93h-93z" />
    <!-- Exclamation mark icon path -->
    <g id="SVGRepo_iconCarrier" transform="matrix(13.308599, 0, 0, 12.516048, 578.436951, 647.454285)" style="">
        <g>
            <g id="c129_exclamation">
                <path d="M13.983,0C6.261,0,0.001,6.259,0.001,13.979c0,7.724,6.26,13.984,13.982,13.984s13.98-6.261,13.98-13.984 C27.963,6.259,21.705,0,13.983,0z M13.983,26.531c-6.933,0-12.55-5.62-12.55-12.553c0-6.93,5.617-12.548,12.55-12.548 c6.931,0,12.549,5.618,12.549,12.548C26.531,20.911,20.913,26.531,13.983,26.531z" style="fill: rgb(255, 165, 0);"></path>
                <polygon points="15.579,17.158 16.191,4.579 11.804,4.579 12.414,17.158 " style="fill: rgb(255, 165, 0);"></polygon>
                <path d="M13.998,18.546c-1.471,0-2.5,1.029-2.5,2.526c0,1.443,0.999,2.528,2.444,2.528h0.056c1.499,0,2.469-1.085,2.469-2.528 C16.441,19.575,15.468,18.546,13.998,18.546z" style="fill: rgb(255, 165, 0);"></path>
            </g>
            <g id="Capa_1_207_"></g>
        </g>
    </g>
</svg>