<?xml version="1.0" encoding="utf-8"?>
<!-- Generator: Adobe Illustrator 26.5.0, SVG Export Plug-In . SVG Version: 6.00 Build 0)  -->
<svg version="1.1" id="Layer_1" xmlns="http://www.w3.org/2000/svg" xmlns:xlink="http://www.w3.org/1999/xlink" x="0px" y="0px"
	 viewBox="0 0 1024 1024" style="enable-background:new 0 0 1024 1024;" xml:space="preserve">
<style type="text/css">
	.st0{fill:#B992E0;}
</style>
<path class="st0" d="M192,64h256V0H64C64,0,0-1,0,64c0,293,0,768,0,768c0,10,3,64,64,64h128v128l96-96l96,96V896h318
	c67,0,66-64,66-64V640H192V64z M704,704c0,0,0,32,0,64c0,62-66,64-66,64s-124,0-254,0v-64H192v64h-66c-64,0-62-64-62-64v-64H704z
	 M960,0H640c0,0-64,0-64,64v384c0,64,64,64,64,64h64v64l32-32l32,32v-64h192c0,0,64,0,64-64V64C1024,0,960,0,960,0z M704,448
	c0,0,0,0-32,0s-32-32-32-32v-32h64V448z M960,416c0,0,0,32-32,32s-160,0-160,0v-64h192V416z M960,320H704V64h224c0,0,32,0,32,32
	S960,320,960,320z M507,316.7C507,315.6,507,315.6,507,316.7c1.1-2.2,1.1-2.2,1.1-2.2c30.1-33.3,74.2-53.8,122.6-53.8
	c1.1,0,1.1,0,2.2,0c10.8-15.1,17.2-32.3,21.5-51.6c0,0,0-1.1,1.1-1.1c2.2-9.7,4.3-20.4,5.4-30.1c1.1-8.6,2.2-17.2,3.2-25.8
	c1.1-9.7,3.2-19.4,7.5-28c1.1-3.2,0-3.2-2.2-3.2c-9.7,0-18.3,1.1-28,2.2c-18.3,3.2-34.4,8.6-49.5,16.1c-5.4,3.2-10.8,6.5-15.1,9.7
	c-6.5,4.3-11.8,8.6-17.2,14c-12.9,12.9-24.7,26.9-34.4,44.1c0,1.1-1.1,1.1-1.1,2.2c-11.8,20.4-21.5,40.9-30.1,63.5
	c-2.2,5.4-4.3,11.8-6.5,17.2c-1.1,3.2-2.2,5.4-3.2,8.6c-1.1,3.2-2.2,5.4-3.2,8.6c0,0,0,0,0,1.1c0,0,0,0,0,1.1
	c-7.5,22.6-15.1,45.2-22.6,68.8c-2.2,6.5-4.3,12.9-7.5,19.4c-1.1,0-1.1-1.1-1.1-2.2c-19.4-46.2-50.6-79.6-95.7-102.2
	c-31.2-15.1-65.6-20.4-100-14c-8.6,2.2-17.2,4.3-25.8,7.5c4.3,3.2,8.6,6.5,11.8,10.8c11.8,11.8,22.6,25.8,33.3,38.7
	c9.7,11.8,20.4,23.7,33.3,32.3c18.3,11.8,37.6,14,58.1,6.5c14-5.4,23.7-15.1,30.1-28c1.1-2.2,2.2-2.2,4.3-1.1
	c17.2,15.1,28,33.3,31.2,55.9c1.1,9.7,1.1,20.4,2.2,30.1c-1.1,8.6-1.1,17.2-2.2,25.8c-1.1,17.2-3.2,35.5-6.5,52.7
	c-3.2,12.9-5.4,26.9-5.4,39.8c0,6.5,2.2,11.8,7.5,16.1c9.7,9.7,25.8,12.9,39.8,6.5c11.8-4.3,17.2-12.9,17.2-25.8
	c0-8.6-1.1-17.2-3.2-25.8c-3.2-14-5.4-28-6.5-41.9c-5.4-16.1-8.6-34.4-8.6-52.7C464,384.4,480.1,345.7,507,316.7z"/>
</svg>
