<?xml version="1.0" encoding="utf-8"?>
<!-- Generator: Adobe Illustrator 27.1.1, SVG Export Plug-In . SVG Version: 6.00 Build 0)  -->
<svg version="1.1" id="Layer_1" xmlns="http://www.w3.org/2000/svg" xmlns:xlink="http://www.w3.org/1999/xlink" x="0px" y="0px"
	 viewBox="0 0 1024 1024" style="enable-background:new 0 0 1024 1024;" xml:space="preserve">
<style type="text/css">
	.st0{fill:#CED0D6;}
</style>
<g>
	<path class="st0" d="M960,0H640c0,0-64,0-64,64v85.4c-6.1,4.1-11.2,8.3-16.4,13.5c-12.9,12.9-24.7,26.9-34.4,44.1
		c0,1.1-1.1,1.1-1.1,2.2c-11.8,20.4-21.5,40.9-30.1,63.5c-2.2,5.4-4.3,11.8-6.5,17.2c-1.1,3.2-2.2,5.4-3.2,8.6
		c-1.1,3.2-2.2,5.4-3.2,8.6c0,0,0,0,0,1.1c0,0,0,0,0,1.1c-7.5,22.6-15.1,45.2-22.6,68.8c-2.2,6.5-4.3,12.9-7.5,19.4
		c-1.1,0-1.1-1.1-1.1-2.2c-19.4-46.2-50.6-79.6-95.7-102.2c-31.2-15.1-65.6-20.4-100-14c-8.6,2.2-17.2,4.3-25.8,7.5
		c4.3,3.2,8.6,6.5,11.8,10.8c11.8,11.8,22.6,25.8,33.3,38.7c9.7,11.8,20.4,23.7,33.3,32.3c18.3,11.8,37.6,14,58.1,6.5
		c14-5.4,23.7-15.1,30.1-28c1.1-2.2,2.2-2.2,4.3-1.1c17.2,15.1,28,33.3,31.2,55.9c1.1,9.7,1.1,20.4,2.2,30.1
		c-1.1,8.6-1.1,17.2-2.2,25.8c-1.1,17.2-3.2,35.5-6.5,52.7c-3.2,12.9-5.4,26.9-5.4,39.8c0,6.5,2.2,11.8,7.5,16.1
		c9.7,9.7,25.8,12.9,39.8,6.5c11.8-4.3,17.2-12.9,17.2-25.8c0-8.6-1.1-17.2-3.2-25.8c-3.2-14-5.4-28-6.5-41.9
		c-5.4-16.1-8.6-34.4-8.6-52.7c-0.8-42.1,15.3-80.8,42.2-109.8c1.1-2.2,1.1-2.2,1.1-2.2c18.2-20.2,41.6-35.6,67.9-44.7V448
		c0,64,64,64,64,64h64v64l32-32l32,32v-64h192c0,0,64,0,64-64V64C1024,0,960,0,960,0z M704,448c0,0,0,0-32,0s-32-32-32-32v-32h64
		V448z M960,416c0,0,0,32-32,32s-160,0-160,0v-64h192V416z M960,320H704V64h224c0,0,32,0,32,32S960,320,960,320z"/>
	<path class="st0" d="M768,640H192V64h256V0H64C64,0,0-1,0,64c0,293,0,768,0,768c0,10,3,64,64,64h128v128l96-96l96,96V896h318
		c67,0,66-64,66-64V640z M704,768c0,62-66,64-66,64s-124,0-254,0v-64H192v64h-66c-64,0-62-64-62-64v-64h640C704,704,704,736,704,768
		z"/>
</g>
</svg>
