<?xml version="1.0" standalone="no"?>
<!DOCTYPE svg PUBLIC "-//W3C//DTD SVG 1.1//EN" "http://www.w3.org/Graphics/SVG/1.1/DTD/svg11.dtd" >
<svg xmlns="http://www.w3.org/2000/svg" xmlns:xlink="http://www.w3.org/1999/xlink" version="1.1" viewBox="-10 0 1044 1024">
   <path fill="#6C707E"
d="M652 694q42 1 69.5 28.5t27.5 69t-27.5 69t-69 27.5t-69 -27.5t-27.5 -69t27.5 -69t68.5 -28.5v0zM948 615q-1 -26 -17.5 -42t-41.5 -16t-41 17t-17 41l3 16l-84 63q7 6 12.5 14.5t10.5 16.5l83 -62q14 9 34 10q24 1 40.5 -16t17.5 -42v0zM834 950q-3 8 -3 16q1 26 18 42
t41.5 16t40.5 -16.5t16 -41.5t-16.5 -41t-40.5 -17q-18 1 -34 11l-83 -63q-10 19 -23 31q5 6 42 32l42 31v0zM967 852q25 -1 41 -17.5t16 -41.5t-16.5 -41t-40.5 -17q-19 1 -33.5 11.5t-20.5 26.5h-123l2 19q0 9 -2 18h123q5 19 20 30.5t34 11.5v0zM186 93v-93h93v93h-93z
M745 93v-93h93v93h-93zM279 186v-93h93v93h-93zM652 186v-93h93v93h-93zM279 279v-93h93v93h-93zM372 279v-93h93v93h-93zM465 279v-93h94v93h-94zM559 279v-93h93v93h-93zM652 279v-93h93v93h-93zM186 372v-93h93v93h-93zM279 372v-93h93v93h-93zM372 372v-93h93v93h-93z
M465 372v-93h94v93h-94zM559 372v-93h93v93h-93zM652 372v-93h93v93h-93zM745 372v-93h93v93h-93zM93 465v-93h93v93h-93zM186 465v-93h93v93h-93zM465 465v-93h94v93h-94zM559 465v-93h93v93h-93zM838 465v-93h93v93h-93zM93 559v-94h93v94h-93zM186 559v-94h93v94h-93z
M372 559v-94h93v94h-93zM465 559v-94h94v94h-94zM559 559v-94h93zM745 465h93h-93zM838 465h93h-93zM0 652v-93h93v93h-93zM93 652v-93h93v93h-93zM186 652v-93h93v93h-93zM279 652v-93h93v93h-93zM372 652v-93h93v93h-93zM465 652v-93h94zM559 559zM186 745v-93h93v93h-93z
M372 745v-93h93v93h-93zM186 838v-93h93v93h-93zM372 838v-93h93v93h-93zM372 931v-93h93v93h-93zM279 1024v-93h93v93h-93zM372 1024v-93h93v93h-93z" />
</svg>
