<svg width="23" height="23" viewBox="0 0 48 48" fill="none" xmlns="http://www.w3.org/2000/svg">
<path d="M18.9199 13.7C18.9204 12.8293 18.6916 11.9737 18.2566 11.2194C17.8216 10.4651 17.1957 9.83855 16.4417 9.40285C15.6878 8.96715 14.8325 8.73761 13.9617 8.7373C13.0909 8.737 12.2354 8.96595 11.4812 9.40112C10.7269 9.8363 10.1006 10.4624 9.66503 11.2164C9.22949 11.9704 9.00012 12.8258 9 13.6966C8.99988 14.5673 9.229 15.4228 9.66434 16.1769C10.0997 16.9311 10.7259 17.5573 11.48 17.9927V34.2071C10.5344 34.7531 9.79539 35.5958 9.37756 36.6045C8.95972 37.6132 8.88641 38.7317 9.16901 39.7863C9.4516 40.841 10.0743 41.7729 10.9405 42.4376C11.8068 43.1023 12.8681 43.4626 13.96 43.4626C15.0518 43.4626 16.1132 43.1023 16.9794 42.4376C17.8456 41.7729 18.4683 40.841 18.7509 39.7863C19.0335 38.7317 18.9602 37.6132 18.5424 36.6045C18.1245 35.5958 17.3855 34.7531 16.4399 34.2071V17.9927C17.1935 17.5576 17.8194 16.9319 18.2547 16.1784C18.69 15.425 18.9194 14.5702 18.9199 13.7V13.7ZM13.96 11.22C14.4505 11.22 14.9299 11.3655 15.3378 11.638C15.7456 11.9105 16.0635 12.2978 16.2512 12.751C16.4389 13.2041 16.488 13.7028 16.3923 14.1838C16.2966 14.6649 16.0604 15.1068 15.7136 15.4536C15.3667 15.8005 14.9249 16.0367 14.4438 16.1324C13.9627 16.228 13.4641 16.1789 13.0109 15.9912C12.5578 15.8035 12.1704 15.4857 11.8979 15.0778C11.6254 14.67 11.48 14.1905 11.48 13.7C11.48 13.0423 11.7413 12.4115 12.2064 11.9464C12.6714 11.4813 13.3022 11.22 13.96 11.22V11.22ZM13.96 40.9798C13.4695 40.9798 12.99 40.8344 12.5822 40.5619C12.1743 40.2894 11.8565 39.902 11.6688 39.4489C11.4811 38.9957 11.4319 38.4971 11.5276 38.016C11.6233 37.5349 11.8595 37.0931 12.2064 36.7462C12.5532 36.3994 12.9951 36.1632 13.4761 36.0675C13.9572 35.9718 14.4559 36.0209 14.909 36.2086C15.3622 36.3963 15.7495 36.7142 16.022 37.122C16.2945 37.5299 16.4399 38.0093 16.4399 38.4998C16.4399 39.1576 16.1787 39.7884 15.7136 40.2534C15.2485 40.7185 14.6177 40.9798 13.96 40.9798Z" fill="#4A93FF"/>
<path d="M36.2804 34.2075V18.3503C36.2784 16.46 35.5265 14.6476 34.1899 13.311C32.8532 11.9743 31.0408 11.2224 29.1505 11.2204H27.6005V8.74039C27.6004 8.49523 27.5276 8.2556 27.3913 8.05179C27.2551 7.84798 27.0615 7.68914 26.835 7.59533C26.6084 7.50153 26.3592 7.47697 26.1188 7.52477C25.8783 7.57257 25.6574 7.69057 25.484 7.86387L20.524 12.8238C20.2917 13.0564 20.1611 13.3716 20.1611 13.7004C20.1611 14.0291 20.2917 14.3444 20.524 14.5769L25.484 19.5368C25.6574 19.7101 25.8783 19.8281 26.1188 19.8759C26.3592 19.9237 26.6084 19.8992 26.835 19.8054C27.0615 19.7116 27.2551 19.5527 27.3913 19.3489C27.5276 19.1451 27.6004 18.9055 27.6005 18.6603V16.1803H29.1505C29.726 16.1803 30.2779 16.409 30.6849 16.8159C31.0918 17.2229 31.3205 17.7748 31.3205 18.3503V34.2075C30.3749 34.7534 29.6359 35.5961 29.218 36.6048C28.8002 37.6136 28.7269 38.732 29.0095 39.7867C29.2921 40.8413 29.9148 41.7732 30.781 42.4379C31.6472 43.1026 32.7086 43.4629 33.8005 43.4629C34.8923 43.4629 35.9537 43.1026 36.8199 42.4379C37.6861 41.7732 38.3088 40.8413 38.5914 39.7867C38.874 38.732 38.8007 37.6136 38.3829 36.6048C37.965 35.5961 37.226 34.7534 36.2804 34.2075ZM33.8005 40.9801C33.31 40.9801 32.8305 40.8347 32.4226 40.5622C32.0148 40.2897 31.697 39.9024 31.5092 39.4492C31.3215 38.996 31.2724 38.4974 31.3681 38.0163C31.4638 37.5353 31.7 37.0934 32.0468 36.7465C32.3937 36.3997 32.8356 36.1635 33.3166 36.0678C33.7977 35.9721 34.2963 36.0213 34.7495 36.209C35.2027 36.3967 35.59 36.7145 35.8625 37.1224C36.135 37.5302 36.2804 38.0097 36.2804 38.5002C36.2804 39.1579 36.0191 39.7887 35.5541 40.2538C35.089 40.7189 34.4582 40.9801 33.8005 40.9801Z" fill="#4A93FF"/>
</svg>
