<svg width="23" height="23" viewBox="0 0 48 48" fill="none" xmlns="http://www.w3.org/2000/svg">
<path fill-rule="evenodd" clip-rule="evenodd" d="M9 13.1341C9 11.7725 9.54091 10.4666 10.5037 9.50375C11.4666 8.54091 12.7725 8 14.1341 8H32.1035C32.512 8 32.9038 8.16227 33.1926 8.45112C33.4815 8.73997 33.6438 9.13174 33.6438 9.54024V16.728C33.6438 17.1365 33.4815 17.5283 33.1926 17.8171C32.9038 18.106 32.512 18.2682 32.1035 18.2682C31.695 18.2682 31.3033 18.106 31.0144 17.8171C30.7256 17.5283 30.5633 17.1365 30.5633 16.728V11.0805H14.1341C13.5895 11.0805 13.0671 11.2968 12.682 11.682C12.2968 12.0671 12.0805 12.5895 12.0805 13.1341V26.91C12.7282 26.6273 13.4274 26.4819 14.1341 26.4828H20.8085C21.217 26.4828 21.6087 26.6451 21.8976 26.9339C22.1864 27.2228 22.3487 27.6146 22.3487 28.0231C22.3487 28.4316 22.1864 28.8233 21.8976 29.1122C21.6087 29.401 21.217 29.5633 20.8085 29.5633H14.1341C13.5895 29.5633 13.0671 29.7797 12.682 30.1648C12.2968 30.5499 12.0805 31.0723 12.0805 31.6169C12.0805 32.1616 12.2968 32.684 12.682 33.0691C13.0671 33.4542 13.5895 33.6706 14.1341 33.6706H25.9426C26.3511 33.6706 26.7428 33.8329 27.0317 34.1217C27.3205 34.4106 27.4828 34.8023 27.4828 35.2108C27.4828 35.6193 27.3205 36.0111 27.0317 36.2999C26.7428 36.5888 26.3511 36.7511 25.9426 36.7511H14.1341C12.7725 36.7511 11.4666 36.2101 10.5037 35.2473C9.54091 34.2845 9 32.9786 9 31.6169V13.1341ZM36.1697 29.132C36.4617 29.4041 36.8479 29.5522 37.2469 29.5452C37.646 29.5381 38.0267 29.3765 38.3089 29.0943C38.5911 28.8121 38.7527 28.4314 38.7598 28.0323C38.7668 27.6333 38.6187 27.2471 38.3466 26.9552L33.2022 21.8108C32.9134 21.5223 32.522 21.3603 32.1138 21.3603C31.7056 21.3603 31.3142 21.5223 31.0254 21.8108L25.881 26.9531C25.6003 27.2435 25.4448 27.6325 25.4482 28.0363C25.4515 28.4402 25.6133 28.8265 25.8987 29.1123C26.1842 29.398 26.5704 29.5601 26.9742 29.5638C27.3781 29.5675 27.7672 29.4125 28.0578 29.132L30.5736 26.6184V39.3181C30.5736 39.7266 30.7358 40.1184 31.0247 40.4072C31.3135 40.6961 31.7053 40.8584 32.1138 40.8584C32.5223 40.8584 32.9141 40.6961 33.2029 40.4072C33.4918 40.1184 33.654 39.7266 33.654 39.3181V26.6184L36.1677 29.132H36.1697Z" fill="#56BD66"/>
</svg>
