<?xml version="1.0" encoding="UTF-8"?>
<svg xmlns="http://www.w3.org/2000/svg" xmlns:xlink="http://www.w3.org/1999/xlink" width="24px" height="24px" viewBox="0 0 24 24" version="1.1">
<g id="surface1">
<path style=" stroke:none;fill-rule:nonzero;fill:rgb(33.333333%,33.333333%,100%);fill-opacity:1;" d="M 4.363281 0 L 6.546875 0 L 6.546875 2.183594 L 4.363281 2.183594 Z M 17.453125 0 L 19.636719 0 L 19.636719 2.183594 L 17.453125 2.183594 Z M 6.546875 2.183594 L 8.726562 2.183594 L 8.726562 4.363281 L 6.546875 4.363281 Z M 15.273438 2.183594 L 17.453125 2.183594 L 17.453125 4.363281 L 15.273438 4.363281 Z M 6.546875 4.363281 L 8.726562 4.363281 L 8.726562 6.546875 L 6.546875 6.546875 Z M 6.546875 4.363281 "/>
<path style=" stroke:none;fill-rule:nonzero;fill:rgb(20%,20%,86.666667%);fill-opacity:1;" d="M 8.726562 4.363281 L 10.910156 4.363281 L 10.910156 6.546875 L 8.726562 6.546875 Z M 8.726562 4.363281 "/>
<path style=" stroke:none;fill-rule:nonzero;fill:rgb(33.333333%,33.333333%,100%);fill-opacity:1;" d="M 10.910156 4.363281 L 13.089844 4.363281 L 13.089844 6.546875 L 10.910156 6.546875 Z M 10.910156 4.363281 "/>
<path style=" stroke:none;fill-rule:nonzero;fill:rgb(20%,20%,86.666667%);fill-opacity:1;" d="M 13.089844 4.363281 L 15.273438 4.363281 L 15.273438 6.546875 L 13.089844 6.546875 Z M 13.089844 4.363281 "/>
<path style=" stroke:none;fill-rule:nonzero;fill:rgb(33.333333%,33.333333%,100%);fill-opacity:1;" d="M 15.273438 4.363281 L 17.453125 4.363281 L 17.453125 6.546875 L 15.273438 6.546875 Z M 4.363281 6.546875 L 6.546875 6.546875 L 6.546875 8.726562 L 4.363281 8.726562 Z M 6.546875 6.546875 L 8.726562 6.546875 L 8.726562 8.726562 L 6.546875 8.726562 Z M 8.726562 6.546875 L 10.910156 6.546875 L 10.910156 8.726562 L 8.726562 8.726562 Z M 10.910156 6.546875 L 13.089844 6.546875 L 13.089844 8.726562 L 10.910156 8.726562 Z M 13.089844 6.546875 L 15.273438 6.546875 L 15.273438 8.726562 L 13.089844 8.726562 Z M 15.273438 6.546875 L 17.453125 6.546875 L 17.453125 8.726562 L 15.273438 8.726562 Z M 17.453125 6.546875 L 19.636719 6.546875 L 19.636719 8.726562 L 17.453125 8.726562 Z M 2.183594 8.726562 L 4.363281 8.726562 L 4.363281 10.910156 L 2.183594 10.910156 Z M 4.363281 8.726562 L 6.546875 8.726562 L 6.546875 10.910156 L 4.363281 10.910156 Z M 4.363281 8.726562 "/>
<path style=" stroke:none;fill-rule:nonzero;fill:rgb(95.686275%,95.686275%,95.686275%);fill-opacity:1;" d="M 6.546875 8.726562 L 8.726562 8.726562 L 8.726562 10.910156 L 6.546875 10.910156 Z M 8.726562 8.726562 L 10.910156 8.726562 L 10.910156 10.910156 L 8.726562 10.910156 Z M 8.726562 8.726562 "/>
<path style=" stroke:none;fill-rule:nonzero;fill:rgb(33.333333%,33.333333%,100%);fill-opacity:1;" d="M 10.910156 8.726562 L 13.089844 8.726562 L 13.089844 10.910156 L 10.910156 10.910156 Z M 13.089844 8.726562 L 15.273438 8.726562 L 15.273438 10.910156 L 13.089844 10.910156 Z M 13.089844 8.726562 "/>
<path style=" stroke:none;fill-rule:nonzero;fill:rgb(95.686275%,95.686275%,95.686275%);fill-opacity:1;" d="M 15.273438 8.726562 L 17.453125 8.726562 L 17.453125 10.910156 L 15.273438 10.910156 Z M 17.453125 8.726562 L 19.636719 8.726562 L 19.636719 10.910156 L 17.453125 10.910156 Z M 17.453125 8.726562 "/>
<path style=" stroke:none;fill-rule:nonzero;fill:rgb(33.333333%,33.333333%,100%);fill-opacity:1;" d="M 19.636719 8.726562 L 21.816406 8.726562 L 21.816406 10.910156 L 19.636719 10.910156 Z M 2.183594 10.910156 L 4.363281 10.910156 L 4.363281 13.089844 L 2.183594 13.089844 Z M 4.363281 10.910156 L 6.546875 10.910156 L 6.546875 13.089844 L 4.363281 13.089844 Z M 4.363281 10.910156 "/>
<path style=" stroke:none;fill-rule:nonzero;fill:rgb(95.686275%,95.686275%,95.686275%);fill-opacity:1;" d="M 6.546875 10.910156 L 8.726562 10.910156 L 8.726562 13.089844 L 6.546875 13.089844 Z M 6.546875 10.910156 "/>
<path style=" stroke:none;fill-rule:nonzero;fill:rgb(100%,33.333333%,100%);fill-opacity:1;" d="M 8.726562 10.910156 L 10.910156 10.910156 L 10.910156 13.089844 L 8.726562 13.089844 Z M 8.726562 10.910156 "/>
<path style=" stroke:none;fill-rule:nonzero;fill:rgb(33.333333%,33.333333%,100%);fill-opacity:1;" d="M 10.910156 10.910156 L 13.089844 10.910156 L 13.089844 13.089844 L 10.910156 13.089844 Z M 13.089844 10.910156 L 15.273438 10.910156 L 15.273438 13.089844 L 13.089844 13.089844 Z M 13.089844 10.910156 "/>
<path style=" stroke:none;fill-rule:nonzero;fill:rgb(95.686275%,95.686275%,95.686275%);fill-opacity:1;" d="M 15.273438 10.910156 L 17.453125 10.910156 L 17.453125 13.089844 L 15.273438 13.089844 Z M 15.273438 10.910156 "/>
<path style=" stroke:none;fill-rule:nonzero;fill:rgb(100%,33.333333%,100%);fill-opacity:1;" d="M 17.453125 10.910156 L 19.636719 10.910156 L 19.636719 13.089844 L 17.453125 13.089844 Z M 17.453125 10.910156 "/>
<path style=" stroke:none;fill-rule:nonzero;fill:rgb(33.333333%,33.333333%,100%);fill-opacity:1;" d="M 19.636719 10.910156 L 21.816406 10.910156 L 21.816406 13.089844 L 19.636719 13.089844 Z M 19.636719 10.910156 "/>
<path style=" stroke:none;fill-rule:nonzero;fill:rgb(20%,20%,86.666667%);fill-opacity:1;" d="M 0 13.089844 L 2.183594 13.089844 L 2.183594 15.273438 L 0 15.273438 Z M 2.183594 13.089844 L 4.363281 13.089844 L 4.363281 15.273438 L 2.183594 15.273438 Z M 4.363281 13.089844 L 6.546875 13.089844 L 6.546875 15.273438 L 4.363281 15.273438 Z M 6.546875 13.089844 L 8.726562 13.089844 L 8.726562 15.273438 L 6.546875 15.273438 Z M 8.726562 13.089844 L 10.910156 13.089844 L 10.910156 15.273438 L 8.726562 15.273438 Z M 10.910156 13.089844 L 13.089844 13.089844 L 13.089844 15.273438 L 10.910156 15.273438 Z M 13.089844 13.089844 L 15.273438 13.089844 L 15.273438 15.273438 L 13.089844 15.273438 Z M 15.273438 13.089844 L 17.453125 13.089844 L 17.453125 15.273438 L 15.273438 15.273438 Z M 17.453125 13.089844 L 19.636719 13.089844 L 19.636719 15.273438 L 17.453125 15.273438 Z M 19.636719 13.089844 L 21.816406 13.089844 L 21.816406 15.273438 L 19.636719 15.273438 Z M 21.816406 13.089844 L 24 13.089844 L 24 15.273438 L 21.816406 15.273438 Z M 4.363281 15.273438 L 6.546875 15.273438 L 6.546875 17.453125 L 4.363281 17.453125 Z M 4.363281 15.273438 "/>
<path style=" stroke:none;fill-rule:nonzero;fill:rgb(33.333333%,33.333333%,100%);fill-opacity:1;" d="M 8.726562 15.273438 L 10.910156 15.273438 L 10.910156 17.453125 L 8.726562 17.453125 Z M 13.089844 15.273438 L 15.273438 15.273438 L 15.273438 17.453125 L 13.089844 17.453125 Z M 13.089844 15.273438 "/>
<path style=" stroke:none;fill-rule:nonzero;fill:rgb(20%,20%,86.666667%);fill-opacity:1;" d="M 17.453125 15.273438 L 19.636719 15.273438 L 19.636719 17.453125 L 17.453125 17.453125 Z M 4.363281 17.453125 L 6.546875 17.453125 L 6.546875 19.636719 L 4.363281 19.636719 Z M 4.363281 17.453125 "/>
<path style=" stroke:none;fill-rule:nonzero;fill:rgb(33.333333%,33.333333%,100%);fill-opacity:1;" d="M 8.726562 17.453125 L 10.910156 17.453125 L 10.910156 19.636719 L 8.726562 19.636719 Z M 13.089844 17.453125 L 15.273438 17.453125 L 15.273438 19.636719 L 13.089844 19.636719 Z M 13.089844 17.453125 "/>
<path style=" stroke:none;fill-rule:nonzero;fill:rgb(20%,20%,86.666667%);fill-opacity:1;" d="M 17.453125 17.453125 L 19.636719 17.453125 L 19.636719 19.636719 L 17.453125 19.636719 Z M 17.453125 17.453125 "/>
<path style=" stroke:none;fill-rule:nonzero;fill:rgb(33.333333%,33.333333%,100%);fill-opacity:1;" d="M 8.726562 19.636719 L 10.910156 19.636719 L 10.910156 21.816406 L 8.726562 21.816406 Z M 13.089844 19.636719 L 15.273438 19.636719 L 15.273438 21.816406 L 13.089844 21.816406 Z M 6.546875 21.816406 L 8.726562 21.816406 L 8.726562 24 L 6.546875 24 Z M 8.726562 21.816406 L 10.910156 21.816406 L 10.910156 24 L 8.726562 24 Z M 13.089844 21.816406 L 15.273438 21.816406 L 15.273438 24 L 13.089844 24 Z M 15.273438 21.816406 L 17.453125 21.816406 L 17.453125 24 L 15.273438 24 Z M 15.273438 21.816406 "/>
</g>
</svg>
