<?xml version="1.0" encoding="utf-8"?>
<!-- Generator: Adobe Illustrator 27.1.1, SVG Export Plug-In . SVG Version: 6.00 Build 0)  -->
<svg version="1.1" id="Layer_1" xmlns="http://www.w3.org/2000/svg" xmlns:xlink="http://www.w3.org/1999/xlink" x="0px" y="0px"
	 viewBox="0 0 300 300" style="enable-background:new 0 0 300 300;" xml:space="preserve">
<style type="text/css">
	.st0{fill:#CED0D6;}
</style>
<path class="st0" d="M159.1,297.8c-6.1,0-12.1,0-18.2,0c-1.9-0.5-3.9-0.4-5.8-0.7c-19.2-2-37.4-7.4-54.4-16.6
	c-29.3-15.8-51-38.7-65-68.9C3,184.2-0.8,155.3,4.3,125.5C9.9,92,25.4,63.6,50.6,40.7c24.6-22.4,53.7-35,86.9-38
	c1.4-0.1,2.9,0.1,4.3-0.5c5.3,0,10.5,0,15.8,0c0.3,0.4,0.8,0.2,1.3,0.3c7.3,0.4,14.5,1.4,21.7,2.9c26.8,5.7,50.2,17.9,70.3,36.5
	c14,13.1,25.1,28.3,33.2,45.8c13.2,28.7,17,58.7,11.2,89.8c-5.5,29.3-18.8,54.6-39.6,75.9c-12.7,13.1-27.4,23.4-43.9,31
	c-14.4,6.6-29.6,10.8-45.4,12.6C164,297.2,161.5,297.2,159.1,297.8z M48.7,127.1c1.9,1.5,3.6,2.9,5.2,4.4c5.2,5.1,9.5,11,14.2,16.6
	c4.2,5,8.5,10,14.1,13.6c8.6,5.5,17.6,6.6,26.9,2.1c4.9-2.4,8.4-6.4,11-11.1c0.5-0.9,0.8-1.1,1.7-0.4c8,6.8,12.6,15.4,13.7,25.9
	c0.7,6.4,0.5,12.7,0,19c-0.7,9.1-1.4,18.3-3.4,27.3c-1.2,5.1-2.2,10.3-1.9,15.6c0.1,2.7,1,5.1,3,7.1c4,4.1,11.2,5.4,17.1,3
	c4.9-2,7.5-5.7,7.6-11c0.1-3.3-0.4-6.5-1-9.8c-1.5-7.8-3.2-15.5-3.6-23.5c-0.7-15.5,0.3-30.8,4.7-45.7c2.2-7.7,5.4-14.9,10.6-21.1
	c0.6-0.7,1.1-0.9,1.9-0.7c1.6,0.3,3.2,0.5,4.9,0.5c10.7-0.2,20.6-3.4,29.8-8.6c11.4-6.4,19.7-15.4,23.9-28.1
	c2.4-7.3,3.5-14.8,4.8-22.2c0.6-3.3,1-6.7,1.5-10c0.7-4.5,1.3-9.1,3.4-13.3c0.5-0.9-0.2-0.7-0.7-0.7c-5.5,0.1-11,0.6-16.4,1.8
	c-17.9,4-31.4,14.3-41.8,29.1c-6.7,9.6-11.8,20.1-16.1,30.9c-5.5,13.7-9.9,27.7-14.6,41.7c-1.6,4.9-3.4,9.8-5.1,14.7
	c-0.5-0.2-0.6-0.6-0.7-0.9c-8.1-19.7-21.7-34.3-40.9-43.6c-13.6-6.6-28-8.8-43-5.9C55.9,124.5,52.3,125.6,48.7,127.1z"/>
</svg>
