<svg xmlns="http://www.w3.org/2000/svg" xmlns:xlink="http://www.w3.org/1999/xlink" version="1.1" viewBox="-10 0 1044 1024">
   <path fill="#CED0D6" d="M578 782q3 -12 27 -100l26 -100l58 57q81 -49 173 -39.5t162 78.5l-43 42q-52 -51 -119.5 -59.5t-129.5 23.5l47 47l-201 51v0zM1024 823q-3 13 -27 100l-26 101l-58 -58q-81 50 -173 40.5t-162 -78.5l43 -43q53 51 120 59.5t129 -23.5l-47 -42l201 -56v0zM186 93v-93h93 v93h-93zM745 93v-93h93v93h-93zM279 186v-93h93v93h-93zM652 186v-93h93v93h-93zM279 279v-93h93v93h-93zM372 279v-93h93v93h-93zM465 279v-93h94v93h-94zM559 279v-93h93v93h-93zM652 279v-93h93v93h-93zM186 372v-93h93v93h-93zM279 372v-93h93v93h-93zM372 372v-93h93 v93h-93zM465 372v-93h94v93h-94zM559 372v-93h93v93h-93zM652 372v-93h93v93h-93zM745 372v-93h93v93h-93zM93 465v-93h93v93h-93zM186 465v-93h93v93h-93zM465 465v-93h94v93h-94zM559 465v-93h93v93h-93zM838 465v-93h93v93h-93zM93 559v-94h93v94h-93zM186 559v-94h93v94 h-93zM372 559v-94h93v94h-93zM465 559v-94h94v94h-94zM559 559v-94h93zM745 465h93h-93zM838 465h93h-93zM0 652v-93h93v93h-93zM93 652v-93h93v93h-93zM186 652v-93h93v93h-93zM279 652v-93h93v93h-93zM372 652v-93h93v93h-93zM465 652v-93h94zM559 559zM186 745v-93h93v93 h-93zM372 745v-93h93v93h-93zM186 838v-93h93v93h-93zM372 838v-93h93v93h-93zM372 931v-93h93v93h-93zM279 1024v-93h93v93h-93zM372 1024v-93h93v93h-93z"/>
</svg>