<?xml version="1.0" encoding="utf-8"?>
<!-- Generator: Adobe Illustrator 27.1.1, SVG Export Plug-In . SVG Version: 6.00 Build 0)  -->
<svg version="1.1" id="Layer_1" xmlns="http://www.w3.org/2000/svg" xmlns:xlink="http://www.w3.org/1999/xlink" x="0px" y="0px"
	 viewBox="0 0 48 48" style="enable-background:new 0 0 48 48;" xml:space="preserve">
<style type="text/css">
	.st0{fill:#6C707E;}
</style>
<path class="st0" d="M25.9,20.2l0.1-0.1C26,20,26,20,25.9,20.2C25.9,20.1,25.9,20.1,25.9,20.2z"/>
<path class="st0" d="M25.9,20.2C25.9,20.1,25.9,20.1,25.9,20.2C26,20,26,20,26,20c2.8-3.1,6.9-5,11.4-5c0.1,0,0.1,0,0.2,0
	c1-1.4,1.6-3,2-4.8c0,0,0-0.1,0.1-0.1c0.2-0.9,0.4-1.9,0.5-2.8c0.1-0.8,0.2-1.6,0.3-2.4c0.1-0.9,0.3-1.8,0.7-2.6C41.3,2,41.2,2,41,2
	c-0.9,0-1.7,0.1-2.6,0.2c-1.7,0.3-3.2,0.8-4.6,1.5c-0.5,0.3-1,0.6-1.4,0.9c-0.6,0.4-1.1,0.8-1.6,1.3c-1.2,1.2-2.3,2.5-3.2,4.1
	c0,0.1-0.1,0.1-0.1,0.2c-1.1,1.9-2,3.8-2.8,5.9c-0.2,0.5-0.4,1.1-0.6,1.6c-0.1,0.3-0.2,0.5-0.3,0.8c-0.1,0.3-0.2,0.5-0.3,0.8
	c0,0,0,0,0,0.1c0,0,0,0,0,0.1c-0.7,2.1-1.4,4.2-2.1,6.4c-0.2,0.6-0.4,1.2-0.7,1.8c-0.1,0-0.1-0.1-0.1-0.2c-1.8-4.3-4.7-7.4-8.9-9.5
	c-2.9-1.4-6.1-1.9-9.3-1.3c-0.8,0.2-1.6,0.4-2.4,0.7c0.4,0.3,0.8,0.6,1.1,1c1.1,1.1,2.1,2.4,3.1,3.6c0.9,1.1,1.9,2.2,3.1,3
	c1.7,1.1,3.5,1.3,5.4,0.6c1.3-0.5,2.2-1.4,2.8-2.6c0.1-0.2,0.2-0.2,0.4-0.1c1.6,1.4,2.6,3.1,2.9,5.2c0.1,0.9,0.1,1.9,0.2,2.8
	c-0.1,0.8-0.1,1.6-0.2,2.4c-0.1,1.6-0.3,3.3-0.6,4.9c-0.3,1.2-0.5,2.5-0.5,3.7c0,0.6,0.2,1.1,0.7,1.5c0.9,0.9,2.4,1.2,3.7,0.6
	c1.1-0.4,1.6-1.2,1.6-2.4c0-0.8-0.1-1.6-0.3-2.4c-0.3-1.3-0.5-2.6-0.6-3.9c-0.5-1.5-0.8-3.2-0.8-4.9C21.9,26.5,23.4,22.9,25.9,20.2z
	"/>
<g>
	<path class="st0" d="M27.1,29.6l2.5-9.4l2.7,2.7c4.9-3.1,11.5-2.5,15.7,1.8l-2,2c-3.2-3.2-7.9-3.7-11.7-1.7l2.2,2.2L27.1,29.6z"/>
	<path class="st0" d="M48,33.4l-2.5,9.4l-2.7-2.7c-4.9,3.1-11.5,2.5-15.7-1.8l2-2C32.3,39.5,37,40,40.8,38l-2.2-2L48,33.4z"/>
</g>
</svg>
