<?xml version="1.0" encoding="utf-8"?>
<!-- Generator: Adobe Illustrator 27.1.1, SVG Export Plug-In . SVG Version: 6.00 Build 0)  -->
<svg version="1.1" id="Layer_1" xmlns="http://www.w3.org/2000/svg" xmlns:xlink="http://www.w3.org/1999/xlink" x="0px" y="0px"
	 viewBox="0 0 48 48" style="enable-background:new 0 0 48 48;" xml:space="preserve">
<style type="text/css">
	.st0{fill:#6C707E;}
</style>
<g>
	<path class="st0" d="M30.7,29.4c2.6,0,4.7,2.1,4.7,4.7s-2.1,4.7-4.7,4.7S26,36.7,26,34.1S28.1,29.4,30.7,29.4z M44.9,25.6
		c0-1.6-1.3-2.8-2.8-2.8c-1.6,0-2.8,1.3-2.8,2.8c0,0.3,0.1,0.6,0.1,0.8l-4,3c0.4,0.4,0.8,1,1.1,1.5l4-3c0.4,0.3,1,0.5,1.6,0.5
		C43.6,28.5,44.9,27.2,44.9,25.6z M39.4,41.7c-0.1,0.3-0.1,0.5-0.1,0.8c0,1.6,1.3,2.8,2.8,2.8c1.6,0,2.8-1.3,2.8-2.8
		c0-1.6-1.3-2.8-2.8-2.8c-0.6,0-1.1,0.2-1.6,0.5l-4-3c-0.3,0.6-0.7,1.1-1.1,1.5C35.4,38.8,39.4,41.7,39.4,41.7z M45.8,37
		c1.6,0,2.8-1.3,2.8-2.8c0-1.6-1.3-2.8-2.8-2.8c-1.2,0-2.2,0.8-2.6,1.8h-5.9c0,0.3,0.1,0.6,0.1,0.9s0,0.6-0.1,0.9h5.9
		C43.5,36.2,44.6,37,45.8,37z"/>
	<path class="st0" d="M25.3,21.3C25.3,21.2,25.3,21.2,25.3,21.3c0.1-0.2,0.1-0.2,0.1-0.2c2.8-3.1,6.9-5,11.4-5c0.1,0,0.1,0,0.2,0
		c1-1.4,1.6-3,2-4.8c0,0,0-0.1,0.1-0.1c0.2-0.9,0.4-1.9,0.5-2.8c0.1-0.8,0.2-1.6,0.3-2.4c0.1-0.9,0.3-1.8,0.7-2.6
		c0.1-0.3,0-0.3-0.2-0.3c-0.9,0-1.7,0.1-2.6,0.2c-1.7,0.3-3.2,0.8-4.6,1.5c-0.5,0.3-1,0.6-1.4,0.9c-0.6,0.4-1.1,0.8-1.6,1.3
		C29,8.2,27.9,9.5,27,11.1c0,0.1-0.1,0.1-0.1,0.2c-1.1,1.9-2,3.8-2.8,5.9c-0.2,0.5-0.4,1.1-0.6,1.6c-0.1,0.3-0.2,0.5-0.3,0.8
		c-0.1,0.3-0.2,0.5-0.3,0.8c0,0,0,0,0,0.1c0,0,0,0,0,0.1c-0.7,2.1-1.4,4.2-2.1,6.4c-0.2,0.6-0.4,1.2-0.7,1.8c-0.1,0-0.1-0.1-0.1-0.2
		c-1.8-4.3-4.7-7.4-8.9-9.5c-2.9-1.4-6.1-1.9-9.3-1.3C1,18,0.2,18.2-0.6,18.5c0.4,0.3,0.8,0.6,1.1,1c1.1,1.1,2.1,2.4,3.1,3.6
		c0.9,1.1,1.9,2.2,3.1,3c1.7,1.1,3.5,1.3,5.4,0.6c1.3-0.5,2.2-1.4,2.8-2.6c0.1-0.2,0.2-0.2,0.4-0.1c1.6,1.4,2.6,3.1,2.9,5.2
		c0.1,0.9,0.1,1.9,0.2,2.8c-0.1,0.8-0.1,1.6-0.2,2.4c-0.1,1.6-0.3,3.3-0.6,4.9c-0.3,1.2-0.5,2.5-0.5,3.7c0,0.6,0.2,1.1,0.7,1.5
		c0.9,0.9,2.4,1.2,3.7,0.6c1.1-0.4,1.6-1.2,1.6-2.4c0-0.8-0.1-1.6-0.3-2.4c-0.3-1.3-0.5-2.6-0.6-3.9c-0.5-1.5-0.8-3.2-0.8-4.9
		C21.3,27.6,22.8,24,25.3,21.3z"/>
</g>
</svg>
