<?xml version="1.0" standalone="no"?>
<!DOCTYPE svg PUBLIC "-//W3C//DTD SVG 1.1//EN" "http://www.w3.org/Graphics/SVG/1.1/DTD/svg11.dtd" >
<svg xmlns="http://www.w3.org/2000/svg" xmlns:xlink="http://www.w3.org/1999/xlink" version="1.1" viewBox="-10 0 1044 1024">

   <path fill="#6C707E"
d="M692 819q-1 -14 -12 -24.5t-25.5 -10t-25.5 10.5t-12 27v167q0 15 10.5 25.5t24.5 9.5h172q15 0 25 -11.5t13 -25.5q-2 -15 -10 -26l-14 -4q-7 -3 -14 -3h-81l209 -209q10 -11 11.5 -25.5t-9 -25t-25 -10t-26.5 11.5l-209 209l-2 -86v0v0zM186 93v-93h93v93h-93zM745 93
v-93h93v93h-93zM279 186v-93h93v93h-93zM652 186v-93h93v93h-93zM279 279v-93h93v93h-93zM372 279v-93h93v93h-93zM465 279v-93h94v93h-94zM559 279v-93h93v93h-93zM652 279v-93h93v93h-93zM186 372v-93h93v93h-93zM279 372v-93h93v93h-93zM372 372v-93h93v93h-93zM465 372
v-93h94v93h-94zM559 372v-93h93v93h-93zM652 372v-93h93v93h-93zM745 372v-93h93v93h-93zM93 465v-93h93v93h-93zM186 465v-93h93v93h-93zM465 465v-93h94v93h-94zM559 465v-93h93v93h-93zM838 465v-93h93v93h-93zM93 559v-94h93v94h-93zM186 559v-94h93v94h-93zM372 559
v-94h93v94h-93zM465 559v-94h94v94h-94zM559 559v-94h93v94h-93zM745 559v-94h93v94h-93zM838 559v-94h93v94h-93zM0 652v-93h93v93h-93zM93 652v-93h93v93h-93zM186 652v-93h93v93h-93zM279 652v-93h93v93h-93zM372 652v-93h93v93h-93zM465 652v-93h94v93h-94zM559 652v-93
h93zM652 559h93h-93zM745 559h93h-93zM838 559h93h-93zM931 559h93h-93zM186 745v-93h93v93h-93zM372 745v-93h93v93h-93zM559 652zM186 838v-93h93v93h-93zM372 838v-93h93v93h-93zM372 931v-93h93v93h-93zM279 1024v-93h93v93h-93zM372 1024v-93h93v93h-93z" />
</svg>
