<?xml version="1.0" standalone="no"?>
<!DOCTYPE svg PUBLIC "-//W3C//DTD SVG 1.1//EN" "http://www.w3.org/Graphics/SVG/1.1/DTD/svg11.dtd" >
<svg xmlns="http://www.w3.org/2000/svg" xmlns:xlink="http://www.w3.org/1999/xlink" version="1.1" viewBox="-10 0 1044 1024">
   <path fill="#CED0D6"
d="M576 149v27v272q4 46 32 56q22 8 32 8h64v64l32 -32l32 32v-64h192q10 0 32 -8q28 -10 32 -56v-384q-4 -46 -32 -56t-32 -8v0h-160h-160q-10 0 -32 8q-28 10 -32 56v85zM704 448q1 0 -4 0h-28q-23 -2 -28 -16t-4 -16v-32h64v64v0zM960 416q1 2 -4 16t-28 16h-160v-64h192
v32v0zM960 320h-128h-128v-256h224q2 -1 16 4t16 28v224v0zM334 206v-35h35v35h-35zM541 206v-35h35v35h-35zM369 240v-34h34v34h-34zM507 240v-34h34v34h-34zM369 275v-35h34v35h-34zM403 275v-35h35v35h-35zM438 275v-35h34v35h-34zM472 275v-35h35v35h-35zM507 275v-35
h34v35h-34zM334 310v-35h35v35h-35zM369 310v-35h34v35h-34zM403 310v-35h35v35h-35zM438 310v-35h34v35h-34zM472 310v-35h35v35h-35zM507 310v-35h34v35h-34zM541 310v-35h35v35h-35zM300 344v-34h34v34h-34zM334 344v-34h35v34h-35zM438 344v-34h34v34h-34zM472 344v-34
h35v34h-35zM576 344v-34v34zM300 379v-35h34v35h-34zM334 379v-35h35v35h-35zM403 379v-35h35v35h-35zM438 379v-35h34v35h-34zM472 379v-35h35v35h-35zM541 379v-35h35v35h-35zM576 379v-35v35zM265 413v-34h35v34h-35zM300 413v-34h34v34h-34zM334 413v-34h35v34h-35z
M369 413v-34h34v34h-34zM403 413v-34h35v34h-35zM438 413v-34h34v34h-34zM472 413v-34h35v34h-35zM507 413v-34h34v34h-34zM541 413v-34h35v34h-35zM576 413v-34v34zM334 448v-35h35v35h-35zM403 448v-35h35v35h-35zM472 448v-35h35v35h-35zM541 448v-35h35v35h-35zM334 483
v-35h35v35h-35zM403 483v-35h35v35h-35zM472 483v-35h35v35h-35zM541 483v-35h35v35h-35zM403 517v-34h35v34h-35zM472 517v-34h35v34h-35zM369 552v-35h34v35h-34zM403 552v-35h35v35h-35zM472 552v-35h35v35h-35zM507 552v-35h34v35h-34zM768 640h-288h-287v-576h256v-64
h-384q-4 -2 -32 7.5t-32 56.5v768q-2 11 8.5 36t55.5 28h128v128l96 -96l96 96v-128h317q49 -4 59 -32t7 -32v-192v0zM704 768q-4 45 -32.5 55.5t-33.5 8.5h-253v-64h-192v64h-66q-46 -4 -55.5 -32t-6.5 -32v-64h639v64v0z" />
</svg>
