<?xml version="1.0" standalone="no"?>
<!DOCTYPE svg PUBLIC "-//W3C//DTD SVG 1.1//EN" "http://www.w3.org/Graphics/SVG/1.1/DTD/svg11.dtd" >
<svg xmlns="http://www.w3.org/2000/svg" xmlns:xlink="http://www.w3.org/1999/xlink" version="1.1" viewBox="-10 0 1044 1024">
   <path fill="#5199b5"
d="M186 93v-93h93v93h-93zM745 93v-93h93v93h-93zM279 186v-93h93v93h-93zM652 186v-93h93v93h-93zM279 279v-93h93v93h-93zM372 279v-93h93v93h-93zM465 279v-93h94v93h-94zM559 279v-93h93v93h-93zM652 279v-93h93v93h-93zM186 372v-93h93v93h-93zM279 372v-93h93v93h-93z
M372 372v-93h93v93h-93zM465 372v-93h94v93h-94zM559 372v-93h93v93h-93zM652 372v-93h93v93h-93zM745 372v-93h93v93h-93zM93 465v-93h93v93h-93zM186 465v-93h93v93h-93zM465 465v-93h94v93h-94zM559 465v-93h93v93h-93zM838 465v-93h93v93h-93zM93 559v-94h93v94h-93z
M186 559v-94h93v94h-93zM372 559v-94h93v94h-93zM465 559v-94h94v94h-94zM559 559v-94h93v94h-93zM745 559v-94h93v94h-93zM838 559v-94h93v94h-93zM0 652v-93h93v93h-93zM93 652v-93h93v93h-93zM186 652v-93h93v93h-93zM279 652v-93h93v93h-93zM372 652v-93h93v93h-93z
M465 652v-93h94v93h-94zM559 652v-93h93zM652 559h93h-93zM745 559h93h-93zM838 559h93h-93zM931 559h93h-93zM186 745v-93h93v93h-93zM372 745v-93h93v93h-93zM559 652zM186 838v-93h93v93h-93zM372 838v-93h93v93h-93zM372 931v-93h93v93h-93zM279 1024v-93h93v93h-93z
M372 1024v-93h93v93h-93zM880 884q0 15 11 25t25.5 9.5t25.5 -10.5q12 -11 12 -26v-167q0 -16 -9.5 -25.5t-25.5 -9.5h-167q-15 0 -25 11q-12 13 -12 26q0 15 9 25q11 12 26 12h81l-209 209q-9 9 -10 25q-2 15 8.5 25.5t25 10t25.5 -11.5l209 -209v81v0v0z" />
</svg>
