<svg xmlns="http://www.w3.org/2000/svg" width="44" height="44" fill="none"><g shape-rendering="crispEdges"><path fill="#55F" d="M8 0h4v4H8zm24 0h4v4h-4zM12 4h4v4h-4zm16 0h4v4h-4zM12 8h4v4h-4z"/><path fill="#33D" d="M16 8h4v4h-4z"/><path fill="#55F" d="M20 8h4v4h-4z"/><path fill="#33D" d="M24 8h4v4h-4z"/><path fill="#55F" d="M28 8h4v4h-4zM8 12h4v4H8zm4 0h4v4h-4zm4 0h4v4h-4zm4 0h4v4h-4zm4 0h4v4h-4zm4 0h4v4h-4zm4 0h4v4h-4zM4 16h4v4H4zm4 0h4v4H8z"/><path fill="#F4F4F4" d="M12 16h4v4h-4zm4 0h4v4h-4z"/><path fill="#55F" d="M20 16h4v4h-4zm4 0h4v4h-4z"/><path fill="#F4F4F4" d="M28 16h4v4h-4zm4 0h4v4h-4z"/><path fill="#55F" d="M36 16h4v4h-4zM4 20h4v4H4zm4 0h4v4H8z"/><path fill="#F4F4F4" d="M12 20h4v4h-4z"/><path fill="#F5F" d="M16 20h4v4h-4z"/><path fill="#55F" d="M20 20h4v4h-4zm4 0h4v4h-4z"/><path fill="#F4F4F4" d="M28 20h4v4h-4z"/><path fill="#F5F" d="M32 20h4v4h-4z"/><path fill="#55F" d="M36 20h4v4h-4z"/><path fill="#33D" d="M0 24h4v4H0zm4 0h4v4H4zm4 0h4v4H8zm4 0h4v4h-4zm4 0h4v4h-4zm4 0h4v4h-4zm4 0h4v4h-4zm4 0h4v4h-4zm4 0h4v4h-4zm4 0h4v4h-4zm4 0h4v4h-4zM8 28h4v4H8z"/><path fill="#55F" d="M16 28h4v4h-4zm8 0h4v4h-4z"/><path fill="#33D" d="M32 28h4v4h-4zM8 32h4v4H8z"/><path fill="#55F" d="M16 32h4v4h-4zm8 0h4v4h-4z"/><path fill="#33D" d="M32 32h4v4h-4z"/><path fill="#55F" d="M16 36h4v4h-4zm8 0h4v4h-4zm-12 4h4v4h-4zm4 0h4v4h-4zm8 0h4v4h-4zm4 0h4v4h-4z"/></g></svg>
